<svg xmlns="http://www.w3.org/2000/svg" xmlns:xlink="http://www.w3.org/1999/xlink" width="1080" zoomAndPan="magnify" viewBox="0 0 810 809.999993" height="1080" preserveAspectRatio="xMidYMid meet" version="1.0"><path fill="#265d60" d="M 446.921875 249.441406 L 446.921875 552.515625 L 385.339844 552.515625 L 385.339844 249.441406 C 395.523438 248.820312 405.785156 248.496094 416.128906 248.496094 C 426.472656 248.496094 436.738281 248.820312 446.921875 249.441406 Z M 446.921875 249.441406" fill-opacity="1" fill-rule="nonzero"></path><path fill="#265d60" d="M 354.90625 552.523438 L 293.28125 552.523438 C 287.953125 467.707031 265.375 389.164062 227.296875 325.300781 C 220.824219 314.449219 214.023438 304.207031 206.894531 294.601562 C 224.632812 286.324219 242.96875 279.070312 261.832031 272.910156 C 269.304688 283.128906 276.421875 293.910156 283.179688 305.222656 C 324.878906 375.117188 349.429688 460.671875 354.917969 552.523438 Z M 354.90625 552.523438" fill-opacity="1" fill-rule="nonzero"></path><path fill="#265d60" d="M 626.839844 295.28125 C 619.910156 304.691406 613.269531 314.703125 606.949219 325.300781 C 568.871094 389.164062 546.300781 467.707031 540.964844 552.523438 L 479.335938 552.523438 C 484.824219 460.671875 509.378906 375.128906 551.078125 305.222656 C 557.707031 294.105469 564.707031 283.496094 572.054688 273.441406 C 590.875 279.65625 609.152344 286.96875 626.839844 295.292969 Z M 626.839844 295.28125" fill-opacity="1" fill-rule="nonzero"></path></svg>